<?xml version="1.0" encoding="UTF-8"?>
<svg xmlns="http://www.w3.org/2000/svg" version="1.1" viewBox="0 0 93 93">
  <defs>
    <style>
      .cls-1 {
        fill: #fff;
      }

      .cls-2 {
        fill: #373234;
      }
    </style>
  </defs>
  <!-- Generator: Adobe Illustrator 28.6.0, SVG Export Plug-In . SVG Version: 1.2.0 Build 709)  -->
  <g>
    <g id="Layer_3">
      <path class="cls-1" d="M93,68.9h-4.9,0l.8-2.6,1.1-3.5h0c1.9-5.1,3-10.6,3-16.4,0-25.7-20.8-46.5-46.5-46.5S0,20.8,0,46.5s20.8,46.5,46.5,46.5h46.5"/>
      <path class="cls-2" d="M88.3,73.6h-9.9c-.6,0-1.2.1-1.8.1-6.2,0-10.9-3.7-10.9-10.1s.5-3.7,1.3-5.2h-2.5v14.9h-7.4v-14.8h-1.8c.1.8,0,1.7,0,2.5v8c0,1.5,0,3.1.9,4.3h-7.6c-.2-.5-.3-1.3-.3-1.8h0c-1.6,1.8-3.8,2.3-6.2,2.3s-4-.6-5.2-1.8v1.3c-1.5,0-3.2.2-4.8.2-3.1,0-6.6-.5-6.6-5.8v-9.3h-3.3v-4.6h3.3v-5.9h7.4v5.9h4v3c.6-1.1,1.5-1.9,2.6-2.4,1.9-.9,4.3-1.1,6.6-1.1,4.3,0,6.6.8,7.8,2.1v-1.6h3c0-1.9.1-4,1.5-5.5s3.5-1.8,6.5-1.8,2.2.1,3.3.2v5.1c-.6,0-1.2-.3-1.8-.3-1.8,0-2.4.5-2.3,2.3h3.9v2.8c1.8-2,4.4-3.2,7.7-3.2,5.5,0,8.8,2.2,10.2,6.3,1.3-4.1,2.1-8.5,2.1-13.1,0-23.1-18.7-41.8-41.8-41.8S4.7,23.4,4.7,46.5s18.7,41.8,41.8,41.8h41.8"/>
      <path class="cls-2" d="M46,57.7c-2.3,0-2.7,1.2-2.8,2h-6.9c0-.5,0-.9.2-1.3h-3.4v6.8c0,1.8.4,2.6,2.3,2.6h0c0-6,7.2-5.8,11-6.5,1-.2,2-.5,2-1.7s-1.2-1.8-2.4-1.8h0Z"/>
      <path class="cls-2" d="M43,67.5c0,.9,1,1.8,2.3,1.8s3-1,3.1-3v-1.8c-.9.4-1.9.7-2.9.9-1.7.4-2.5.8-2.5,2.1Z"/>
      <path class="cls-2" d="M76.7,58.1c-2.2,0-3.5,1.2-3.8,3.3h7.1c0-1.8-1.3-3.3-3.2-3.3Z"/>
      <path class="cls-2" d="M76.6,68.9c1.2,0,2.5-.4,3.1-1.4h2.9c.5-.8.9-1.6,1.3-2.4h-11.1c.2,2.2,1.5,3.8,3.8,3.8h0Z"/>
    </g>
  </g>
</svg>